HIERARCHY
ROOT root
{
	OFFSET 0.000000 0.000000 0.000000
	CHANNELS 6 Xposition Yposition Zposition Zrotation Yrotation Xrotation
	JOINT lhip
	{
		OFFSET 0.058581 -0.082280 -0.017664
		CHANNELS 3 Zrotation Yrotation Xrotation
		JOINT lknee
		{
			OFFSET 0.043451 -0.386469 0.008037
			CHANNELS 3 Zrotation Yrotation Xrotation
			JOINT lankle
			{
				OFFSET -0.014790 -0.426874 -0.037428
				CHANNELS 3 Zrotation Yrotation Xrotation
				JOINT ltoe
				{
					OFFSET 0.041054 -0.060286 0.122042
					CHANNELS 3 Zrotation Yrotation Xrotation
					End Site
					{
						OFFSET 0.000000 0.000000 0.000000
					}
				}
			}
		}
	}
	JOINT rhip
	{
		OFFSET -0.060310 -0.090513 -0.013543
		CHANNELS 3 Zrotation Yrotation Xrotation
		JOINT rknee
		{
			OFFSET -0.043257 -0.383688 -0.004843
			CHANNELS 3 Zrotation Yrotation Xrotation
			JOINT rankle
			{
				OFFSET 0.019056 -0.420046 -0.034562
				CHANNELS 3 Zrotation Yrotation Xrotation
				JOINT rtoe
				{
					OFFSET -0.034840 -0.062106 0.130323
					CHANNELS 3 Zrotation Yrotation Xrotation
					End Site
					{
						OFFSET 0.000000 0.000000 0.000000
					}
				}
			}
		}
	}
	JOINT lowerback
	{
		OFFSET 0.004439 0.124404 -0.038385
		CHANNELS 3 Zrotation Yrotation Xrotation
		JOINT upperback
		{
			OFFSET 0.004488 0.137956 0.026820
			CHANNELS 3 Zrotation Yrotation Xrotation
			JOINT chest
			{
				OFFSET -0.002265 0.056032 0.002855
				CHANNELS 3 Zrotation Yrotation Xrotation
				JOINT lowerneck
				{
					OFFSET -0.013390 0.211636 -0.033468
					CHANNELS 3 Zrotation Yrotation Xrotation
					JOINT upperneck
					{
						OFFSET 0.010113 0.088937 0.050410
						CHANNELS 3 Zrotation Yrotation Xrotation
						End Site
						{
							OFFSET 0.000000 0.000000 0.000000
						}
					}
				}
				JOINT lclavicle
				{
					OFFSET 0.071702 0.114000 -0.018898
					CHANNELS 3 Zrotation Yrotation Xrotation
					JOINT lshoulder
					{
						OFFSET 0.122921 0.045205 -0.019046
						CHANNELS 3 Zrotation Yrotation Xrotation
						JOINT lelbow
						{
							OFFSET 0.255332 -0.015649 -0.022946
							CHANNELS 3 Zrotation Yrotation Xrotation
							JOINT lwrist
							{
								OFFSET 0.265709 0.012698 -0.007375
								CHANNELS 3 Zrotation Yrotation Xrotation
								End Site
								{
									OFFSET 0.000000 0.000000 0.000000
								}
							}
						}
					}
				}
				JOINT rclavicle
				{
					OFFSET -0.082954 0.112472 -0.023707
					CHANNELS 3 Zrotation Yrotation Xrotation
					JOINT rshoulder
					{
						OFFSET -0.113228 0.046853 -0.008472
						CHANNELS 3 Zrotation Yrotation Xrotation
						JOINT relbow
						{
							OFFSET -0.260127 -0.014369 -0.031269
							CHANNELS 3 Zrotation Yrotation Xrotation
							JOINT rwrist
							{
								OFFSET -0.269108 0.006794 -0.006027
								CHANNELS 3 Zrotation Yrotation Xrotation
								End Site
								{
									OFFSET 0.000000 0.000000 0.000000
								}
							}
						}
					}
				}
			}
		}
	}
}
MOTION
Frames: 8
Frame Time: 0.033333
0.028787 -0.880429 0.915102 169.068161 6.928548 99.737248 0.921715 0.477266 0.978462 -14.704059 -12.519063 39.948636 4.679526 5.959569 -23.886028 0.000000 -0.000000 0.000000 -11.182926 1.547266 -43.167588 3.102284 -7.791156 67.084750 -1.380650 -6.637362 -17.213109 0.000000 -0.000000 0.000000 1.066057 -6.610425 16.258490 5.228301 -3.917617 8.318288 1.889151 -5.465870 1.048536 -1.037805 18.760803 -3.608828 -7.533505 18.692080 -7.207969 -22.204010 -3.532304 2.675277 -48.620527 -3.830946 6.239479 14.948657 -66.064204 3.688416 16.555445 -3.642042 -8.582932 22.405018 0.135963 4.124429 65.704506 2.555073 14.820865 -107.600893 64.227446 -105.865031 -7.691479 2.982238 -62.054645 
0.064547 -0.818290 0.892144 170.732892 8.111257 100.428910 4.467869 1.446042 7.930723 -13.491293 -15.616916 35.731991 3.758230 5.065579 -25.460698 0.000000 -0.000000 0.000000 -14.457306 -1.678103 -48.223428 3.003422 -10.408730 56.449066 1.542523 -4.727406 -14.972294 0.000000 -0.000000 0.000000 1.929224 -9.533384 16.201179 6.107154 -5.519835 7.516436 2.656367 -7.228867 1.201915 -2.152996 22.806273 -5.221398 -9.196400 22.603900 -6.110524 -19.780357 -5.444878 1.471893 -50.876141 -10.772002 4.738119 26.825967 -66.172256 -7.282748 21.351881 -4.375964 -6.973376 20.826308 0.365772 2.910677 67.383243 4.620508 17.625471 -120.041417 63.362923 -111.801673 -6.885349 3.780182 -52.853131 
0.098020 -0.747674 0.867980 170.954682 9.312367 101.423304 6.353066 2.203418 13.715941 -10.918057 -15.903277 32.528786 2.849836 5.341151 -22.556286 0.000000 -0.000000 0.000000 -16.898471 -3.936283 -49.754950 4.043778 -12.595736 48.412072 4.460603 -2.918729 -11.544546 0.000000 -0.000000 0.000000 3.919085 -12.112883 15.121634 7.077307 -6.551070 6.914393 3.139359 -8.338514 0.753492 -3.261012 25.730815 -5.223527 -12.243321 27.723344 -5.695668 -17.881041 -5.811439 1.625833 -53.698101 -11.894605 4.712718 27.817128 -66.788387 -6.221312 23.143790 -5.069714 -6.350664 18.597903 1.380246 1.306936 69.341995 9.352664 20.293463 -128.953001 62.094054 -114.825264 -1.663230 5.903013 -41.268882 
0.130381 -0.672925 0.842995 169.732951 10.153474 102.154701 6.165262 3.094081 15.025048 -9.184048 -11.550680 36.779489 2.968863 6.405866 -16.093597 0.000000 -0.000000 0.000000 -18.339161 -5.455715 -49.723305 5.021990 -14.195424 50.716394 2.925316 -1.852301 -14.246177 0.000000 -0.000000 0.000000 6.419543 -12.956257 13.597187 8.090565 -6.563721 7.287926 2.962307 -8.392964 0.075818 -3.214356 27.438194 -5.115661 -15.876098 31.441157 -5.905743 -17.713427 -5.987190 2.935331 -57.253017 -7.901911 5.579901 17.466303 -66.881246 7.367504 20.378847 -5.223603 -5.253185 17.355700 4.267962 0.153416 70.754467 15.980285 23.143690 -139.323585 61.429290 -119.492844 5.025830 6.979560 -29.535151 
0.157801 -0.601399 0.821860 167.691044 10.917586 101.232657 4.714780 4.202372 10.960599 -9.112678 -5.524867 50.720387 3.853265 7.105267 -12.841805 0.000000 -0.000000 0.000000 -18.390142 -6.250033 -47.889707 6.227858 -14.835787 58.068480 -0.212952 -0.738280 -21.589071 0.000000 -0.000000 0.000000 9.054074 -11.689643 15.996151 8.511862 -5.206838 8.042793 2.612258 -6.917648 -1.112927 -3.575649 26.640458 -7.397130 -18.562722 32.358075 -7.914167 -19.469940 -7.797811 4.142445 -61.356933 -1.760006 6.558691 5.447318 -61.620673 19.491232 16.326439 -3.354579 -6.480873 17.531885 10.264366 -0.398241 67.525479 22.777261 24.623151 -151.167925 61.837977 -126.294884 9.849698 6.361920 -15.719044 
0.178499 -0.535196 0.807953 165.416875 11.129277 98.862027 2.558891 4.842895 1.827854 -7.968260 1.889155 69.785961 4.146831 8.159812 -13.884237 0.000000 -0.000000 0.000000 -17.647075 -6.760804 -43.631085 6.746538 -13.067010 63.212481 -2.310217 -0.127472 -28.237478 0.000000 -0.000000 0.000000 11.414975 -9.053699 22.534757 7.045971 -2.722603 8.773726 2.191125 -3.775762 -2.817313 -5.267306 22.700473 -11.637276 -18.497406 31.029016 -11.355660 -22.312416 -10.861195 4.472282 -63.989600 4.901608 5.859131 -1.189294 -50.957676 23.833247 12.209798 -2.208742 -6.017786 17.122878 17.934404 0.601648 57.974452 26.945065 20.541395 -158.741156 64.902840 -131.807832 11.857585 5.331014 -4.365251 
0.195813 -0.472375 0.799087 164.334535 10.082799 97.271668 0.893570 4.277280 -12.735429 -5.965771 8.475985 87.916068 4.900493 7.855571 -16.756976 0.000000 -0.000000 0.000000 -17.747537 -8.368894 -38.546692 7.508350 -9.303739 65.873112 -2.729082 -0.018392 -33.510650 0.000000 -0.000000 0.000000 12.724704 -5.191092 29.108403 4.434696 0.174808 7.871114 1.603064 -0.502598 -3.332211 -6.599078 17.212129 -14.409225 -16.491396 28.105892 -14.564390 -24.740932 -11.780856 4.803360 -62.558677 10.756985 4.302341 -6.405347 -40.473380 26.571691 11.445164 -2.170846 -3.345370 16.948598 22.370570 2.450862 45.302765 27.243078 12.154576 -149.096233 75.512883 -125.271024 6.644052 7.563475 3.142205 
0.209690 -0.408607 0.794795 164.283492 8.673131 96.304576 0.850154 2.872887 -30.216335 -5.228622 14.360383 99.557464 6.080070 7.257115 -19.444914 0.000000 -0.000000 0.000000 -19.278272 -10.645612 -32.548316 9.353746 -5.740993 66.354621 -1.921842 0.311312 -36.628897 0.000000 -0.000000 0.000000 13.119463 -0.377029 33.525202 2.468515 2.416246 7.100254 0.983248 2.120049 -2.675805 -7.228074 13.466242 -14.405410 -15.001056 24.082474 -16.375003 -26.007453 -10.054185 5.681147 -56.716808 16.036927 4.365004 -12.146151 -36.731338 31.769045 12.276022 -2.930820 -3.242404 18.677346 23.954263 4.547419 32.267888 27.351535 2.371809 -33.540950 76.436218 -15.187451 0.694502 11.317696 9.885715 
